# xmcd
#
# Track frame offsets:
#	150
#	12907
#	23405
#	34485
#	46713
#	58477
#	71075
#	86720
#	97588
#	108319
#
# Disc length: 1584 seconds
#
# Revision: 0
# Processed by: cddbd v1.5.2PL0 Copyright (c) Steve Scherf et al.
# Submitted via: audiograbber 1.83.01
#
DISCID=78062e0a
DTITLE=Jean Shepard - Just As Soon As I Get Over Loving You
DYEAR=1971
DGENRE=Country
TTITLE0=Just As Soon As I Get Over Loving You
TTITLE1=Just One Time
TTITLE2=The Closet Thing To Perfect
TTITLE3=Look Of Lovin' (In His Eyes)
TTITLE4=My Name Is Woman
TTITLE5=With His Hand In Mine
TTITLE6=The World Needs A Melody
TTITLE7=I'm Alone
TTITLE8=Just Plain Lonely
TTITLE9=Song Of The Wind
EXTD=
EXTT0=
EXTT1=
EXTT2=
EXTT3=
EXTT4=
EXTT5=
EXTT6=
EXTT7=
EXTT8=
EXTT9=
PLAYORDER=
